<?xml version="1.0" encoding="UTF-8"?>
<!DOCTYPE svg PUBLIC "-//W3C//DTD SVG 1.1//EN" "http://www.w3.org/Graphics/SVG/1.1/DTD/svg11.dtd">
<svg version="1.2" width="167.64mm" height="96.52mm" viewBox="0 0 16764 9652" preserveAspectRatio="xMidYMid" fill-rule="evenodd" stroke-width="28.222" stroke-linejoin="round" xmlns="http://www.w3.org/2000/svg" xmlns:ooo="http://xml.openoffice.org/svg/export" xmlns:xlink="http://www.w3.org/1999/xlink" xmlns:presentation="http://sun.com/xmlns/staroffice/presentation" xmlns:smil="http://www.w3.org/2001/SMIL20/" xmlns:anim="urn:oasis:names:tc:opendocument:xmlns:animation:1.0" xml:space="preserve">
 <defs class="ClipPathGroup">
  <clipPath id="presentation_clip_path" clipPathUnits="userSpaceOnUse">
   <rect x="0" y="0" width="16764" height="9652"/>
  </clipPath>
  <clipPath id="presentation_clip_path_shrink" clipPathUnits="userSpaceOnUse">
   <rect x="16" y="9" width="16731" height="9633"/>
  </clipPath>
 </defs>
 <defs class="TextShapeIndex">
  <g ooo:slide="id1" ooo:id-list="id3 id4 id5 id6 id7 id8 id9 id10 id11 id12 id13 id14 id15 id16 id17 id18 id19 id20 id21 id22 id23 id24 id25 id26 id27 id28 id29 id30 id31 id32 id33 id34 id35 id36 id37 id38 id39 id40 id41 id42 id43 id44 id45 id46 id47 id48 id49 id50 id51"/>
 </defs>
 <defs class="EmbeddedBulletChars">
  <g id="bullet-char-template-57356" transform="scale(0.00048828125,-0.00048828125)">
   <path d="M 580,1141 L 1163,571 580,0 -4,571 580,1141 Z"/>
  </g>
  <g id="bullet-char-template-57354" transform="scale(0.00048828125,-0.00048828125)">
   <path d="M 8,1128 L 1137,1128 1137,0 8,0 8,1128 Z"/>
  </g>
  <g id="bullet-char-template-10146" transform="scale(0.00048828125,-0.00048828125)">
   <path d="M 174,0 L 602,739 174,1481 1456,739 174,0 Z M 1358,739 L 309,1346 659,739 1358,739 Z"/>
  </g>
  <g id="bullet-char-template-10132" transform="scale(0.00048828125,-0.00048828125)">
   <path d="M 2015,739 L 1276,0 717,0 1260,543 174,543 174,936 1260,936 717,1481 1274,1481 2015,739 Z"/>
  </g>
  <g id="bullet-char-template-10007" transform="scale(0.00048828125,-0.00048828125)">
   <path d="M 0,-2 C -7,14 -16,27 -25,37 L 356,567 C 262,823 215,952 215,954 215,979 228,992 255,992 264,992 276,990 289,987 310,991 331,999 354,1012 L 381,999 492,748 772,1049 836,1024 860,1049 C 881,1039 901,1025 922,1006 886,937 835,863 770,784 769,783 710,716 594,584 L 774,223 C 774,196 753,168 711,139 L 727,119 C 717,90 699,76 672,76 641,76 570,178 457,381 L 164,-76 C 142,-110 111,-127 72,-127 30,-127 9,-110 8,-76 1,-67 -2,-52 -2,-32 -2,-23 -1,-13 0,-2 Z"/>
  </g>
  <g id="bullet-char-template-10004" transform="scale(0.00048828125,-0.00048828125)">
   <path d="M 285,-33 C 182,-33 111,30 74,156 52,228 41,333 41,471 41,549 55,616 82,672 116,743 169,778 240,778 293,778 328,747 346,684 L 369,508 C 377,444 397,411 428,410 L 1163,1116 C 1174,1127 1196,1133 1229,1133 1271,1133 1292,1118 1292,1087 L 1292,965 C 1292,929 1282,901 1262,881 L 442,47 C 390,-6 338,-33 285,-33 Z"/>
  </g>
  <g id="bullet-char-template-9679" transform="scale(0.00048828125,-0.00048828125)">
   <path d="M 813,0 C 632,0 489,54 383,161 276,268 223,411 223,592 223,773 276,916 383,1023 489,1130 632,1184 813,1184 992,1184 1136,1130 1245,1023 1353,916 1407,772 1407,592 1407,412 1353,268 1245,161 1136,54 992,0 813,0 Z"/>
  </g>
  <g id="bullet-char-template-8226" transform="scale(0.00048828125,-0.00048828125)">
   <path d="M 346,457 C 273,457 209,483 155,535 101,586 74,649 74,723 74,796 101,859 155,911 209,963 273,989 346,989 419,989 480,963 531,910 582,859 608,796 608,723 608,648 583,586 532,535 482,483 420,457 346,457 Z"/>
  </g>
  <g id="bullet-char-template-8211" transform="scale(0.00048828125,-0.00048828125)">
   <path d="M -4,459 L 1135,459 1135,606 -4,606 -4,459 Z"/>
  </g>
  <g id="bullet-char-template-61548" transform="scale(0.00048828125,-0.00048828125)">
   <path d="M 173,740 C 173,903 231,1043 346,1159 462,1274 601,1332 765,1332 928,1332 1067,1274 1183,1159 1299,1043 1357,903 1357,740 1357,577 1299,437 1183,322 1067,206 928,148 765,148 601,148 462,206 346,322 231,437 173,577 173,740 Z"/>
  </g>
 </defs>
 <g>
  <g id="id2" class="Master_Slide">
   <g id="bg-id2" class="Background"/>
   <g id="bo-id2" class="BackgroundObjects"/>
  </g>
 </g>
 <g class="SlideGroup">
  <g>
   <g id="container-id1">
    <g id="id1" class="Slide" clip-path="url(#presentation_clip_path)">
     <g class="Page">
      <g class="com.sun.star.drawing.CustomShape">
       <g id="id3">
        <rect class="BoundingBox" stroke="none" fill="none" x="225" y="744" width="16387" height="8259"/>
        <path fill="rgb(0,0,0)" stroke="none" d="M 634,745 L 634,745 C 562,745 492,764 430,800 368,835 316,887 281,949 245,1011 226,1081 226,1153 L 226,8592 226,8593 C 226,8665 245,8735 281,8797 316,8859 368,8911 430,8946 492,8982 562,9001 634,9001 L 16201,9001 16202,9001 C 16274,9001 16344,8982 16406,8946 16468,8911 16520,8859 16555,8797 16591,8735 16610,8665 16610,8593 L 16609,1153 16610,1153 16610,1153 C 16610,1081 16591,1011 16555,949 16520,887 16468,835 16406,800 16344,764 16274,745 16202,745 L 634,745 Z"/>
        <path fill="none" stroke="rgb(52,101,164)" d="M 634,745 L 634,745 C 562,745 492,764 430,800 368,835 316,887 281,949 245,1011 226,1081 226,1153 L 226,8592 226,8593 C 226,8665 245,8735 281,8797 316,8859 368,8911 430,8946 492,8982 562,9001 634,9001 L 16201,9001 16202,9001 C 16274,9001 16344,8982 16406,8946 16468,8911 16520,8859 16555,8797 16591,8735 16610,8665 16610,8593 L 16609,1153 16610,1153 16610,1153 C 16610,1081 16591,1011 16555,949 16520,887 16468,835 16406,800 16344,764 16274,745 16202,745 L 634,745 Z"/>
       </g>
      </g>
      <g class="com.sun.star.drawing.CustomShape">
       <g id="id4">
        <rect class="BoundingBox" stroke="none" fill="none" x="1541" y="210" width="690" height="690"/>
        <path fill="rgb(255,255,255)" stroke="none" d="M 1886,872 L 1568,872 1568,237 2203,237 2203,872 1886,872 Z"/>
        <path fill="none" stroke="rgb(0,0,0)" stroke-width="53" stroke-linejoin="round" d="M 1886,872 L 1568,872 1568,237 2203,237 2203,872 1886,872 Z"/>
       </g>
      </g>
      <g class="com.sun.star.drawing.CustomShape">
       <g id="id5">
        <rect class="BoundingBox" stroke="none" fill="none" x="2541" y="210" width="690" height="690"/>
        <path fill="rgb(255,255,255)" stroke="none" d="M 2886,872 L 2568,872 2568,237 3203,237 3203,872 2886,872 Z"/>
        <path fill="none" stroke="rgb(0,0,0)" stroke-width="53" stroke-linejoin="round" d="M 2886,872 L 2568,872 2568,237 3203,237 3203,872 2886,872 Z"/>
       </g>
      </g>
      <g class="com.sun.star.drawing.CustomShape">
       <g id="id6">
        <rect class="BoundingBox" stroke="none" fill="none" x="3541" y="210" width="690" height="690"/>
        <path fill="rgb(255,255,255)" stroke="none" d="M 3886,872 L 3568,872 3568,237 4203,237 4203,872 3886,872 Z"/>
        <path fill="none" stroke="rgb(0,0,0)" stroke-width="53" stroke-linejoin="round" d="M 3886,872 L 3568,872 3568,237 4203,237 4203,872 3886,872 Z"/>
       </g>
      </g>
      <g class="com.sun.star.drawing.CustomShape">
       <g id="id7">
        <rect class="BoundingBox" stroke="none" fill="none" x="4541" y="210" width="690" height="690"/>
        <path fill="rgb(255,255,255)" stroke="none" d="M 4886,872 L 4568,872 4568,237 5203,237 5203,872 4886,872 Z"/>
        <path fill="none" stroke="rgb(0,0,0)" stroke-width="53" stroke-linejoin="round" d="M 4886,872 L 4568,872 4568,237 5203,237 5203,872 4886,872 Z"/>
       </g>
      </g>
      <g class="com.sun.star.drawing.CustomShape">
       <g id="id8">
        <rect class="BoundingBox" stroke="none" fill="none" x="5541" y="210" width="690" height="690"/>
        <path fill="rgb(255,255,255)" stroke="none" d="M 5886,872 L 5568,872 5568,237 6203,237 6203,872 5886,872 Z"/>
        <path fill="none" stroke="rgb(0,0,0)" stroke-width="53" stroke-linejoin="round" d="M 5886,872 L 5568,872 5568,237 6203,237 6203,872 5886,872 Z"/>
       </g>
      </g>
      <g class="com.sun.star.drawing.CustomShape">
       <g id="id9">
        <rect class="BoundingBox" stroke="none" fill="none" x="6541" y="210" width="690" height="690"/>
        <path fill="rgb(255,255,255)" stroke="none" d="M 6886,872 L 6568,872 6568,237 7203,237 7203,872 6886,872 Z"/>
        <path fill="none" stroke="rgb(0,0,0)" stroke-width="53" stroke-linejoin="round" d="M 6886,872 L 6568,872 6568,237 7203,237 7203,872 6886,872 Z"/>
       </g>
      </g>
      <g class="com.sun.star.drawing.CustomShape">
       <g id="id10">
        <rect class="BoundingBox" stroke="none" fill="none" x="7541" y="210" width="690" height="690"/>
        <path fill="rgb(255,255,255)" stroke="none" d="M 7886,872 L 7568,872 7568,237 8203,237 8203,872 7886,872 Z"/>
        <path fill="none" stroke="rgb(0,0,0)" stroke-width="53" stroke-linejoin="round" d="M 7886,872 L 7568,872 7568,237 8203,237 8203,872 7886,872 Z"/>
       </g>
      </g>
      <g class="com.sun.star.drawing.CustomShape">
       <g id="id11">
        <rect class="BoundingBox" stroke="none" fill="none" x="8541" y="210" width="690" height="690"/>
        <path fill="rgb(255,255,255)" stroke="none" d="M 8886,872 L 8568,872 8568,237 9203,237 9203,872 8886,872 Z"/>
        <path fill="none" stroke="rgb(0,0,0)" stroke-width="53" stroke-linejoin="round" d="M 8886,872 L 8568,872 8568,237 9203,237 9203,872 8886,872 Z"/>
       </g>
      </g>
      <g class="com.sun.star.drawing.CustomShape">
       <g id="id12">
        <rect class="BoundingBox" stroke="none" fill="none" x="9541" y="210" width="690" height="690"/>
        <path fill="rgb(255,255,255)" stroke="none" d="M 9886,872 L 9568,872 9568,237 10203,237 10203,872 9886,872 Z"/>
        <path fill="none" stroke="rgb(0,0,0)" stroke-width="53" stroke-linejoin="round" d="M 9886,872 L 9568,872 9568,237 10203,237 10203,872 9886,872 Z"/>
       </g>
      </g>
      <g class="com.sun.star.drawing.CustomShape">
       <g id="id13">
        <rect class="BoundingBox" stroke="none" fill="none" x="10541" y="210" width="690" height="690"/>
        <path fill="rgb(255,255,255)" stroke="none" d="M 10886,872 L 10568,872 10568,237 11203,237 11203,872 10886,872 Z"/>
        <path fill="none" stroke="rgb(0,0,0)" stroke-width="53" stroke-linejoin="round" d="M 10886,872 L 10568,872 10568,237 11203,237 11203,872 10886,872 Z"/>
       </g>
      </g>
      <g class="com.sun.star.drawing.CustomShape">
       <g id="id14">
        <rect class="BoundingBox" stroke="none" fill="none" x="11541" y="210" width="690" height="690"/>
        <path fill="rgb(255,255,255)" stroke="none" d="M 11886,872 L 11568,872 11568,237 12203,237 12203,872 11886,872 Z"/>
        <path fill="none" stroke="rgb(0,0,0)" stroke-width="53" stroke-linejoin="round" d="M 11886,872 L 11568,872 11568,237 12203,237 12203,872 11886,872 Z"/>
       </g>
      </g>
      <g class="com.sun.star.drawing.CustomShape">
       <g id="id15">
        <rect class="BoundingBox" stroke="none" fill="none" x="12541" y="210" width="690" height="690"/>
        <path fill="rgb(255,255,255)" stroke="none" d="M 12886,872 L 12568,872 12568,237 13203,237 13203,872 12886,872 Z"/>
        <path fill="none" stroke="rgb(0,0,0)" stroke-width="53" stroke-linejoin="round" d="M 12886,872 L 12568,872 12568,237 13203,237 13203,872 12886,872 Z"/>
       </g>
      </g>
      <g class="com.sun.star.drawing.CustomShape">
       <g id="id16">
        <rect class="BoundingBox" stroke="none" fill="none" x="13541" y="210" width="690" height="690"/>
        <path fill="rgb(255,255,255)" stroke="none" d="M 13886,872 L 13568,872 13568,237 14203,237 14203,872 13886,872 Z"/>
        <path fill="none" stroke="rgb(0,0,0)" stroke-width="53" stroke-linejoin="round" d="M 13886,872 L 13568,872 13568,237 14203,237 14203,872 13886,872 Z"/>
       </g>
      </g>
      <g class="com.sun.star.drawing.CustomShape">
       <g id="id17">
        <rect class="BoundingBox" stroke="none" fill="none" x="14541" y="210" width="690" height="690"/>
        <path fill="rgb(255,255,255)" stroke="none" d="M 14886,872 L 14568,872 14568,237 15203,237 15203,872 14886,872 Z"/>
        <path fill="none" stroke="rgb(0,0,0)" stroke-width="53" stroke-linejoin="round" d="M 14886,872 L 14568,872 14568,237 15203,237 15203,872 14886,872 Z"/>
       </g>
      </g>
      <g class="com.sun.star.drawing.CustomShape">
       <g id="id18">
        <rect class="BoundingBox" stroke="none" fill="none" x="15541" y="210" width="690" height="690"/>
        <path fill="rgb(255,255,255)" stroke="none" d="M 15886,872 L 15568,872 15568,237 16203,237 16203,872 15886,872 Z"/>
        <path fill="none" stroke="rgb(0,0,0)" stroke-width="53" stroke-linejoin="round" d="M 15886,872 L 15568,872 15568,237 16203,237 16203,872 15886,872 Z"/>
       </g>
      </g>
      <g class="com.sun.star.drawing.CustomShape">
       <g id="id19">
        <rect class="BoundingBox" stroke="none" fill="none" x="1541" y="8810" width="690" height="690"/>
        <path fill="rgb(255,255,255)" stroke="none" d="M 1886,9472 L 1568,9472 1568,8837 2203,8837 2203,9472 1886,9472 Z"/>
        <path fill="none" stroke="rgb(0,0,0)" stroke-width="53" stroke-linejoin="round" d="M 1886,9472 L 1568,9472 1568,8837 2203,8837 2203,9472 1886,9472 Z"/>
       </g>
      </g>
      <g class="com.sun.star.drawing.CustomShape">
       <g id="id20">
        <rect class="BoundingBox" stroke="none" fill="none" x="2541" y="8810" width="690" height="690"/>
        <path fill="rgb(255,255,255)" stroke="none" d="M 2886,9472 L 2568,9472 2568,8837 3203,8837 3203,9472 2886,9472 Z"/>
        <path fill="none" stroke="rgb(0,0,0)" stroke-width="53" stroke-linejoin="round" d="M 2886,9472 L 2568,9472 2568,8837 3203,8837 3203,9472 2886,9472 Z"/>
       </g>
      </g>
      <g class="com.sun.star.drawing.CustomShape">
       <g id="id21">
        <rect class="BoundingBox" stroke="none" fill="none" x="3541" y="8810" width="690" height="690"/>
        <path fill="rgb(255,255,255)" stroke="none" d="M 3886,9472 L 3568,9472 3568,8837 4203,8837 4203,9472 3886,9472 Z"/>
        <path fill="none" stroke="rgb(0,0,0)" stroke-width="53" stroke-linejoin="round" d="M 3886,9472 L 3568,9472 3568,8837 4203,8837 4203,9472 3886,9472 Z"/>
       </g>
      </g>
      <g class="com.sun.star.drawing.CustomShape">
       <g id="id22">
        <rect class="BoundingBox" stroke="none" fill="none" x="4541" y="8810" width="690" height="690"/>
        <path fill="rgb(255,255,255)" stroke="none" d="M 4886,9472 L 4568,9472 4568,8837 5203,8837 5203,9472 4886,9472 Z"/>
        <path fill="none" stroke="rgb(0,0,0)" stroke-width="53" stroke-linejoin="round" d="M 4886,9472 L 4568,9472 4568,8837 5203,8837 5203,9472 4886,9472 Z"/>
       </g>
      </g>
      <g class="com.sun.star.drawing.CustomShape">
       <g id="id23">
        <rect class="BoundingBox" stroke="none" fill="none" x="5541" y="8810" width="690" height="690"/>
        <path fill="rgb(255,255,255)" stroke="none" d="M 5886,9472 L 5568,9472 5568,8837 6203,8837 6203,9472 5886,9472 Z"/>
        <path fill="none" stroke="rgb(0,0,0)" stroke-width="53" stroke-linejoin="round" d="M 5886,9472 L 5568,9472 5568,8837 6203,8837 6203,9472 5886,9472 Z"/>
       </g>
      </g>
      <g class="com.sun.star.drawing.CustomShape">
       <g id="id24">
        <rect class="BoundingBox" stroke="none" fill="none" x="6541" y="8810" width="690" height="690"/>
        <path fill="rgb(255,255,255)" stroke="none" d="M 6886,9472 L 6568,9472 6568,8837 7203,8837 7203,9472 6886,9472 Z"/>
        <path fill="none" stroke="rgb(0,0,0)" stroke-width="53" stroke-linejoin="round" d="M 6886,9472 L 6568,9472 6568,8837 7203,8837 7203,9472 6886,9472 Z"/>
       </g>
      </g>
      <g class="com.sun.star.drawing.CustomShape">
       <g id="id25">
        <rect class="BoundingBox" stroke="none" fill="none" x="7541" y="8810" width="690" height="690"/>
        <path fill="rgb(255,255,255)" stroke="none" d="M 7886,9472 L 7568,9472 7568,8837 8203,8837 8203,9472 7886,9472 Z"/>
        <path fill="none" stroke="rgb(0,0,0)" stroke-width="53" stroke-linejoin="round" d="M 7886,9472 L 7568,9472 7568,8837 8203,8837 8203,9472 7886,9472 Z"/>
       </g>
      </g>
      <g class="com.sun.star.drawing.CustomShape">
       <g id="id26">
        <rect class="BoundingBox" stroke="none" fill="none" x="8541" y="8810" width="690" height="690"/>
        <path fill="rgb(255,255,255)" stroke="none" d="M 8886,9472 L 8568,9472 8568,8837 9203,8837 9203,9472 8886,9472 Z"/>
        <path fill="none" stroke="rgb(0,0,0)" stroke-width="53" stroke-linejoin="round" d="M 8886,9472 L 8568,9472 8568,8837 9203,8837 9203,9472 8886,9472 Z"/>
       </g>
      </g>
      <g class="com.sun.star.drawing.CustomShape">
       <g id="id27">
        <rect class="BoundingBox" stroke="none" fill="none" x="9541" y="8810" width="690" height="690"/>
        <path fill="rgb(255,255,255)" stroke="none" d="M 9886,9472 L 9568,9472 9568,8837 10203,8837 10203,9472 9886,9472 Z"/>
        <path fill="none" stroke="rgb(0,0,0)" stroke-width="53" stroke-linejoin="round" d="M 9886,9472 L 9568,9472 9568,8837 10203,8837 10203,9472 9886,9472 Z"/>
       </g>
      </g>
      <g class="com.sun.star.drawing.CustomShape">
       <g id="id28">
        <rect class="BoundingBox" stroke="none" fill="none" x="10541" y="8810" width="690" height="690"/>
        <path fill="rgb(255,255,255)" stroke="none" d="M 10886,9472 L 10568,9472 10568,8837 11203,8837 11203,9472 10886,9472 Z"/>
        <path fill="none" stroke="rgb(0,0,0)" stroke-width="53" stroke-linejoin="round" d="M 10886,9472 L 10568,9472 10568,8837 11203,8837 11203,9472 10886,9472 Z"/>
       </g>
      </g>
      <g class="com.sun.star.drawing.CustomShape">
       <g id="id29">
        <rect class="BoundingBox" stroke="none" fill="none" x="11541" y="8810" width="690" height="690"/>
        <path fill="rgb(255,255,255)" stroke="none" d="M 11886,9472 L 11568,9472 11568,8837 12203,8837 12203,9472 11886,9472 Z"/>
        <path fill="none" stroke="rgb(0,0,0)" stroke-width="53" stroke-linejoin="round" d="M 11886,9472 L 11568,9472 11568,8837 12203,8837 12203,9472 11886,9472 Z"/>
       </g>
      </g>
      <g class="com.sun.star.drawing.CustomShape">
       <g id="id30">
        <rect class="BoundingBox" stroke="none" fill="none" x="12541" y="8810" width="690" height="690"/>
        <path fill="rgb(255,255,255)" stroke="none" d="M 12886,9472 L 12568,9472 12568,8837 13203,8837 13203,9472 12886,9472 Z"/>
        <path fill="none" stroke="rgb(0,0,0)" stroke-width="53" stroke-linejoin="round" d="M 12886,9472 L 12568,9472 12568,8837 13203,8837 13203,9472 12886,9472 Z"/>
       </g>
      </g>
      <g class="com.sun.star.drawing.CustomShape">
       <g id="id31">
        <rect class="BoundingBox" stroke="none" fill="none" x="13541" y="8810" width="690" height="690"/>
        <path fill="rgb(255,255,255)" stroke="none" d="M 13886,9472 L 13568,9472 13568,8837 14203,8837 14203,9472 13886,9472 Z"/>
        <path fill="none" stroke="rgb(0,0,0)" stroke-width="53" stroke-linejoin="round" d="M 13886,9472 L 13568,9472 13568,8837 14203,8837 14203,9472 13886,9472 Z"/>
       </g>
      </g>
      <g class="com.sun.star.drawing.CustomShape">
       <g id="id32">
        <rect class="BoundingBox" stroke="none" fill="none" x="14541" y="8810" width="690" height="690"/>
        <path fill="rgb(255,255,255)" stroke="none" d="M 14886,9472 L 14568,9472 14568,8837 15203,8837 15203,9472 14886,9472 Z"/>
        <path fill="none" stroke="rgb(0,0,0)" stroke-width="53" stroke-linejoin="round" d="M 14886,9472 L 14568,9472 14568,8837 15203,8837 15203,9472 14886,9472 Z"/>
       </g>
      </g>
      <g class="com.sun.star.drawing.CustomShape">
       <g id="id33">
        <rect class="BoundingBox" stroke="none" fill="none" x="15541" y="8810" width="690" height="690"/>
        <path fill="rgb(255,255,255)" stroke="none" d="M 15886,9472 L 15568,9472 15568,8837 16203,8837 16203,9472 15886,9472 Z"/>
        <path fill="none" stroke="rgb(0,0,0)" stroke-width="53" stroke-linejoin="round" d="M 15886,9472 L 15568,9472 15568,8837 16203,8837 16203,9472 15886,9472 Z"/>
       </g>
      </g>
      <g class="com.sun.star.drawing.CustomShape">
       <g id="id34">
        <rect class="BoundingBox" stroke="none" fill="none" x="15719" y="3285" width="1909" height="2798"/>
        <path fill="rgb(102,102,102)" stroke="none" d="M 17626,4684 C 17626,4929 17582,5170 17498,5382 17415,5595 17294,5771 17150,5894 17005,6016 16840,6081 16673,6081 16506,6081 16341,6016 16197,5894 16052,5771 15931,5595 15848,5382 15764,5170 15720,4929 15720,4684 15720,4438 15764,4197 15848,3985 15931,3772 16052,3596 16197,3473 16341,3351 16506,3286 16673,3286 16840,3286 17005,3351 17150,3473 17294,3596 17415,3772 17498,3985 17582,4197 17626,4438 17626,4683 L 17626,4684 Z"/>
        <path fill="none" stroke="rgb(52,101,164)" d="M 17626,4684 C 17626,4929 17582,5170 17498,5382 17415,5595 17294,5771 17150,5894 17005,6016 16840,6081 16673,6081 16506,6081 16341,6016 16197,5894 16052,5771 15931,5595 15848,5382 15764,5170 15720,4929 15720,4684 15720,4438 15764,4197 15848,3985 15931,3772 16052,3596 16197,3473 16341,3351 16506,3286 16673,3286 16840,3286 17005,3351 17150,3473 17294,3596 17415,3772 17498,3985 17582,4197 17626,4438 17626,4683 L 17626,4684 Z"/>
       </g>
      </g>
      <g class="com.sun.star.drawing.CustomShape">
       <g id="id35">
        <rect class="BoundingBox" stroke="none" fill="none" x="16624" y="490" width="1676" height="8766"/>
        <path fill="rgb(255,255,255)" stroke="none" d="M 17462,9254 L 16625,9254 16625,491 18298,491 18298,9254 17462,9254 Z"/>
        <path fill="none" stroke="rgb(255,255,255)" d="M 17462,9254 L 16625,9254 16625,491 18298,491 18298,9254 17462,9254 Z"/>
       </g>
      </g>
      <g class="com.sun.star.drawing.CustomShape">
       <g id="id36">
        <rect class="BoundingBox" stroke="none" fill="none" x="3866" y="1327" width="9124" height="7092"/>
        <path fill="none" stroke="rgb(255,255,255)" stroke-width="106" stroke-linejoin="round" d="M 8428,8365 L 3919,8365 3919,1380 12936,1380 12936,8365 8428,8365 Z"/>
       </g>
      </g>
      <g class="com.sun.star.drawing.LineShape">
       <g id="id37">
        <rect class="BoundingBox" stroke="none" fill="none" x="4414" y="2510" width="283" height="1934"/>
        <path fill="none" stroke="rgb(255,255,255)" stroke-width="282" stroke-linejoin="round" d="M 4555,2651 L 4555,4302"/>
       </g>
      </g>
      <g class="com.sun.star.drawing.LineShape">
       <g id="id38">
        <rect class="BoundingBox" stroke="none" fill="none" x="12214" y="4711" width="283" height="1934"/>
        <path fill="none" stroke="rgb(255,255,255)" stroke-width="282" stroke-linejoin="round" d="M 12355,4852 L 12355,6503"/>
       </g>
      </g>
      <g class="com.sun.star.drawing.LineShape">
       <g id="id39">
        <rect class="BoundingBox" stroke="none" fill="none" x="8347" y="1337" width="143" height="7128"/>
        <path fill="none" stroke="rgb(255,255,255)" stroke-width="141" stroke-linejoin="round" d="M 8418,1408 L 8418,1686"/>
        <path fill="none" stroke="rgb(255,255,255)" stroke-width="141" stroke-linejoin="round" d="M 8418,1865 L 8418,2143"/>
        <path fill="none" stroke="rgb(255,255,255)" stroke-width="141" stroke-linejoin="round" d="M 8418,2322 L 8418,2599"/>
        <path fill="none" stroke="rgb(255,255,255)" stroke-width="141" stroke-linejoin="round" d="M 8418,2779 L 8418,3056"/>
        <path fill="none" stroke="rgb(255,255,255)" stroke-width="141" stroke-linejoin="round" d="M 8418,3235 L 8418,3513"/>
        <path fill="none" stroke="rgb(255,255,255)" stroke-width="141" stroke-linejoin="round" d="M 8418,3692 L 8418,3970"/>
        <path fill="none" stroke="rgb(255,255,255)" stroke-width="141" stroke-linejoin="round" d="M 8418,4149 L 8418,4427"/>
        <path fill="none" stroke="rgb(255,255,255)" stroke-width="141" stroke-linejoin="round" d="M 8418,4606 L 8418,4884"/>
        <path fill="none" stroke="rgb(255,255,255)" stroke-width="141" stroke-linejoin="round" d="M 8418,5063 L 8418,5340"/>
        <path fill="none" stroke="rgb(255,255,255)" stroke-width="141" stroke-linejoin="round" d="M 8418,5520 L 8418,5797"/>
        <path fill="none" stroke="rgb(255,255,255)" stroke-width="141" stroke-linejoin="round" d="M 8418,5976 L 8418,6254"/>
        <path fill="none" stroke="rgb(255,255,255)" stroke-width="141" stroke-linejoin="round" d="M 8418,6433 L 8418,6711"/>
        <path fill="none" stroke="rgb(255,255,255)" stroke-width="141" stroke-linejoin="round" d="M 8418,6890 L 8418,7168"/>
        <path fill="none" stroke="rgb(255,255,255)" stroke-width="141" stroke-linejoin="round" d="M 8418,7347 L 8418,7625"/>
        <path fill="none" stroke="rgb(255,255,255)" stroke-width="141" stroke-linejoin="round" d="M 8418,7804 L 8418,8082"/>
        <path fill="none" stroke="rgb(255,255,255)" stroke-width="141" stroke-linejoin="round" d="M 8418,8261 L 8418,8393"/>
       </g>
      </g>
      <g class="com.sun.star.drawing.CustomShape">
       <g id="id40">
        <rect class="BoundingBox" stroke="none" fill="none" x="7475" y="4809" width="257" height="257"/>
        <path fill="rgb(255,255,255)" stroke="none" d="M 7603,5064 L 7476,5064 7476,4810 7730,4810 7730,5064 7603,5064 Z"/>
        <path fill="none" stroke="rgb(255,255,255)" d="M 7603,5064 L 7476,5064 7476,4810 7730,4810 7730,5064 7603,5064 Z"/>
       </g>
      </g>
      <g class="com.sun.star.drawing.LineShape">
       <g id="id41">
        <rect class="BoundingBox" stroke="none" fill="none" x="7515" y="1547" width="685" height="177"/>
        <path fill="none" stroke="rgb(255,255,255)" stroke-width="176" stroke-linejoin="round" d="M 8111,1635 L 7603,1635"/>
       </g>
      </g>
      <g class="com.sun.star.drawing.LineShape">
       <g id="id42">
        <rect class="BoundingBox" stroke="none" fill="none" x="7516" y="2247" width="685" height="177"/>
        <path fill="none" stroke="rgb(255,255,255)" stroke-width="176" stroke-linejoin="round" d="M 8112,2335 L 7604,2335"/>
       </g>
      </g>
      <g class="com.sun.star.drawing.LineShape">
       <g id="id43">
        <rect class="BoundingBox" stroke="none" fill="none" x="7940" y="1479" width="177" height="1027"/>
        <path fill="none" stroke="rgb(255,255,255)" stroke-width="176" stroke-linejoin="round" d="M 8028,1567 L 8028,2417"/>
       </g>
      </g>
      <g class="com.sun.star.drawing.LineShape">
       <g id="id44">
        <rect class="BoundingBox" stroke="none" fill="none" x="7515" y="1902" width="685" height="177"/>
        <path fill="none" stroke="rgb(255,255,255)" stroke-width="176" stroke-linejoin="round" d="M 8111,1990 L 7603,1990"/>
       </g>
      </g>
      <g class="com.sun.star.drawing.LineShape">
       <g id="id45">
        <rect class="BoundingBox" stroke="none" fill="none" x="8616" y="2261" width="685" height="177"/>
        <path fill="none" stroke="rgb(255,255,255)" stroke-width="176" stroke-linejoin="round" d="M 8704,2349 L 9212,2349"/>
       </g>
      </g>
      <g class="com.sun.star.drawing.LineShape">
       <g id="id46">
        <rect class="BoundingBox" stroke="none" fill="none" x="8615" y="1561" width="685" height="177"/>
        <path fill="none" stroke="rgb(255,255,255)" stroke-width="176" stroke-linejoin="round" d="M 8703,1649 L 9211,1649"/>
       </g>
      </g>
      <g class="com.sun.star.drawing.LineShape">
       <g id="id47">
        <rect class="BoundingBox" stroke="none" fill="none" x="8699" y="1479" width="177" height="1027"/>
        <path fill="none" stroke="rgb(255,255,255)" stroke-width="176" stroke-linejoin="round" d="M 8787,2417 L 8787,1567"/>
       </g>
      </g>
      <g class="com.sun.star.drawing.LineShape">
       <g id="id48">
        <rect class="BoundingBox" stroke="none" fill="none" x="8616" y="1906" width="685" height="177"/>
        <path fill="none" stroke="rgb(255,255,255)" stroke-width="176" stroke-linejoin="round" d="M 8704,1994 L 9212,1994"/>
       </g>
      </g>
      <g class="com.sun.star.drawing.LineShape">
       <g id="id49">
        <rect class="BoundingBox" stroke="none" fill="none" x="9034" y="1479" width="177" height="1027"/>
        <path fill="none" stroke="rgb(255,255,255)" stroke-width="176" stroke-linejoin="round" d="M 9122,2417 L 9122,1567"/>
       </g>
      </g>
      <g class="com.sun.star.drawing.CustomShape">
       <g id="id50">
        <rect class="BoundingBox" stroke="none" fill="none" x="541" y="210" width="690" height="690"/>
        <path fill="rgb(255,255,255)" stroke="none" d="M 886,872 L 568,872 568,237 1203,237 1203,872 886,872 Z"/>
        <path fill="none" stroke="rgb(0,0,0)" stroke-width="53" stroke-linejoin="round" d="M 886,872 L 568,872 568,237 1203,237 1203,872 886,872 Z"/>
       </g>
      </g>
      <g class="com.sun.star.drawing.CustomShape">
       <g id="id51">
        <rect class="BoundingBox" stroke="none" fill="none" x="541" y="8810" width="690" height="690"/>
        <path fill="rgb(255,255,255)" stroke="none" d="M 886,9472 L 568,9472 568,8837 1203,8837 1203,9472 886,9472 Z"/>
        <path fill="none" stroke="rgb(0,0,0)" stroke-width="53" stroke-linejoin="round" d="M 886,9472 L 568,9472 568,8837 1203,8837 1203,9472 886,9472 Z"/>
       </g>
      </g>
     </g>
    </g>
   </g>
  </g>
 </g>
</svg>